<?xml version="1.0" encoding="utf-8"?>
<!-- Generator: Adobe Illustrator 26.3.1, SVG Export Plug-In . SVG Version: 6.00 Build 0)  -->
<svg version="1.1" id="Layer_1" xmlns="http://www.w3.org/2000/svg" xmlns:xlink="http://www.w3.org/1999/xlink" x="0px" y="0px"
	 viewBox="0 0 627.37 463.06" style="enable-background:new 0 0 627.37 463.06;" xml:space="preserve">
<style type="text/css">
	.st0{fill-rule:evenodd;clip-rule:evenodd;}
	.st1{fill:#202020;}
	.st2{fill:#868686;}
	.st3{fill:#909090;}
	.st4{fill:#9B9B9B;}
	.st5{fill:#5C5C5C;}
	.st6{fill:#1A1A1A;}
	.st7{fill:#737373;}
	.st8{fill:#575757;}
	.st9{fill:#595959;}
	.st10{fill:#6C6C6C;}
	.st11{fill:#4C4C4C;}
	.st12{fill:#666666;}
	.st13{fill:#898989;}
	.st14{fill:#4B4B4B;}
	.st15{fill:#525252;}
	.st16{fill:#454545;}
	.st17{fill:#707070;}
	.st18{fill:#959595;}
	.st19{fill:#080808;}
	.st20{fill:#6B6B6B;}
	.st21{fill:#606060;}
	.st22{fill:#8A8A8A;}
	.st23{fill:#979797;}
	.st24{fill:#434343;}
	.st25{fill:#646464;}
	.st26{fill:#505050;}
	.st27{fill:#747474;}
	.st28{fill:#717171;}
	.st29{fill:#424242;}
	.st30{fill:#656565;}
	.st31{fill:#343434;}
	.st32{fill:#565656;}
	.st33{fill:#6F6F6F;}
	.st34{fill:#7D7D7D;}
	.st35{fill:#5E5E5E;}
	.st36{fill:#4D4D4D;}
	.st37{fill:#313131;}
	.st38{fill:#989898;}
	.st39{fill:#404040;}
	.st40{fill:#727272;}
	.st41{fill:#2E2E2E;}
	.st42{fill:#696969;}
	.st43{fill:#7B7B7B;}
	.st44{fill:#393939;}
	.st45{fill:#8D8D8D;}
	.st46{fill:#848484;}
	.st47{fill:#111111;}
	.st48{fill:#353535;}
	.st49{fill:#686868;}
	.st50{fill:#555555;}
	.st51{fill:#494949;}
	.st52{fill:#4A4A4A;}
	.st53{fill:#636363;}
	.st54{fill:#5B5B5B;}
	.st55{fill:#ABABAB;}
	.st56{fill:#474747;}
	.st57{fill:#616161;}
	.st58{fill:#292929;}
	.st59{fill:#2D2D2D;}
	.st60{fill:#3A3A3A;}
	.st61{fill:#5A5A5A;}
	.st62{fill:#6A6A6A;}
	.st63{fill:#878787;}
	.st64{fill:#3E3E3E;}
	.st65{fill:#919191;}
	.st66{fill:#6D6D6D;}
	.st67{fill:#484848;}
	.st68{fill:#4E4E4E;}
	.st69{fill:#8E8E8E;}
	.st70{fill:#444444;}
	.st71{fill:#969696;}
	.st72{fill:#585858;}
	.st73{fill:#828282;}
	.st74{fill:#3F3F3F;}
	.st75{fill:#787878;}
	.st76{fill:#9A9A9A;}
	.st77{fill:#3D3D3D;}
	.st78{fill:#535353;}
	.st79{fill:#515151;}
	.st80{fill:#626262;}
	.st81{fill:#464646;}
	.st82{fill:#4F4F4F;}
	.st83{fill:#414141;}
	.st84{fill:#676767;}
	.st85{fill:#7C7C7C;}
	.st86{fill:#5D5D5D;}
	.st87{fill:#323232;}
	.st88{fill:#151515;}
	.st89{fill:#838383;}
	.st90{fill:#6E6E6E;}
	.st91{fill:#303030;}
	.st92{fill:#7A7A7A;}
	.st93{fill:#383838;}
	.st94{fill:#141414;}
	.st95{fill:#171717;}
	.st96{fill:#888888;}
	.st97{fill:#2F2F2F;}
	.st98{fill:#212121;}
	.st99{fill:#757575;}
	.st100{fill:#7E7E7E;}
	.st101{fill:#808080;}
	.st102{fill:#A0A0A0;}
	.st103{fill:#767676;}
	.st104{fill:#333333;}
	.st105{fill:#A9A9A9;}
	.st106{fill:#8B8B8B;}
	.st107{fill:#A7A7A7;}
	.st108{fill:#939393;}
	.st109{fill:#7F7F7F;}
	.st110{fill:#363636;}
	.st111{fill:#3B3B3B;}
	.st112{fill:#242424;}
	.st113{fill:#252525;}
	.st114{fill:#858585;}
	.st115{fill:#ACACAC;}
	.st116{fill:#9D9D9D;}
	.st117{fill:#AAAAAA;}
	.st118{fill:#161616;}
	.st119{fill:#3C3C3C;}
	.st120{fill:#010101;}
	.st121{fill:#1F1F1F;}
	.st122{fill:#222222;}
	.st123{fill:#0F0F0F;}
	.st124{fill:#0D0D0D;}
	.st125{fill:#191919;}
	.st126{fill:#0B0B0B;}
	.st127{fill:#2C2C2C;}
	.st128{fill:#1C1C1C;}
	.st129{fill:#262626;}
	.st130{fill:#101010;}
	.st131{fill:#020202;}
	.st132{fill:#282828;}
	.st133{fill:#0C0C0C;}
	.st134{fill:#1B1B1B;}
	.st135{fill:#030303;}
	.st136{fill:#1D1D1D;}
	.st137{fill:#272727;}
	.st138{fill:#090909;}
	.st139{fill:#070707;}
	.st140{fill:#181818;}
	.st141{fill:#121212;}
	.st142{fill:#040404;}
	.st143{fill:#1E1E1E;}
	.st144{fill:#232323;}
	.st145{fill:#373737;}
	.st146{fill:#060606;}
	.st147{fill:#2A2A2A;}
	.st148{fill:#8F8F8F;}
	.st149{fill:#2B2B2B;}
	.st150{fill:#0E0E0E;}
	.st151{fill:#A5A5A5;}
	.st152{fill:#929292;}
	.st153{fill:#818181;}
	.st154{fill:#5F5F5F;}
	.st155{fill:#545454;}
	.st156{fill:#050505;}
	.st157{fill:#131313;}
	.st158{fill:#777777;}
	.st159{fill:#0A0A0A;}
	.st160{fill:#8C8C8C;}
	.st161{fill:#9C9C9C;}
	.st162{fill:#797979;}
	.st163{fill:#A1A1A1;}
	.st164{fill:#A8A8A8;}
	.st165{fill:#949494;}
	.st166{fill:none;stroke:#0F0E0C;stroke-width:0.8178;stroke-miterlimit:10;}
	.st167{fill:#A3A3A3;}
	.st168{fill:#A4A4A4;}
	.st169{fill:#A2A2A2;}
	.st170{fill:#999999;}
</style>
<g>
	<g>
		<path d="M71.1,277.42c1.9-3.84,4.16-7.53,5.73-11.5c1.61-4.07,2.65-8.38,3.81-12.61c1.09-3.98,1.97-8.01,3.02-12
			c1.35-5.14,3.18-10.19,4.1-15.4c3.68-20.81,12.87-38.18,31.71-48.9c5.47-3.11,12.27-5.06,18.55-5.31
			c7.88-0.31,14.52-3.24,21.41-6.07c1.34-0.55,2.76-1.3,4.14-1.31c11.56-0.08,23.15-0.45,34.68,0.21
			c6.04,0.35,11.97,2.59,17.96,3.99c3.91,0.91,7.78,2.37,11.73,2.65c17.29,1.24,34.5,3.54,51.93,2.71c7.1-0.34,13.2-3.25,19.58-5.57
			c5.7-2.07,11.31-4.4,16.99-6.53c2.59-0.97,5.22-1.99,7.92-2.5c4.72-0.91,9.5-1.96,14.27-2.03c7.67-0.1,15.3-0.66,23.01,1.76
			c4.85,1.52,10.56,0.06,15.82,0.55c8.56,0.81,17.07,2.13,25.6,3.23c1.47,0.19,2.96,0.57,4.42,0.48c7.17-0.41,14.34-0.87,21.49-1.47
			c2.39-0.2,4.74-0.88,7.12-1.27c1.46-0.24,3.06-0.83,4.38-0.48c3.99,1.06,8.11,2.04,11.72,3.95c3.26,1.72,5.97,4.53,8.76,7.04
			c0.69,0.62,0.75,1.93,1.1,2.92c0,0,0.13-0.12,0.13-0.12c-0.27-0.06-0.65-0.02-0.78-0.18c-3.79-4.7-8.71-2.66-13.34-2.21
			c-0.91,0.09-1.76,0.49-2.41,1.14c-2.51,2.51-4.75,5.31-7.37,7.69c-4.52,4.1-7.41,8.81-7.26,15.12c0.12,5.12,0.02,10.25,0.02,15.89
			c4.02,0.29,8.17,1.4,12.78-1.03c3.67-1.94,8.25-2.13,12.4-3.23c3.36-0.88,6.74-1.77,9.99-2.98c3.22-1.2,6.4-2.61,9.39-4.28
			c3.91-2.2,7.72-1.28,11.26,0.33c11.12,5.03,22,10.59,33.18,15.47c7.09,3.09,9.37,8.17,8.8,15.43c-0.36,4.52-0.07,9.09-0.07,14.39
			c-1.82-1.08-2.69-1.6-3.43-2.04c-2.38,2.58-4.72,5.11-7.29,7.91c1.01,0.47,2.22,1.04,3.66,1.72c-0.7,1.11-1.3,2.07-1.93,3.06
			c5.37,2.24,12.01-1.37,14.51-7.71c1.97-0.18,3.93-0.35,5.88-0.53c0.16,0.39,0.14,0.36,0.3,0.75c-3.36,2.6-6.45,5.7-10.15,7.64
			c-4.6,2.41-9.01,6.09-14.62,5.53c-3.16-0.32-6.33-0.56-9.5-0.4c-7.15,0.35-10.32,1.18-11.39,6.71c-0.29,1.51-0.66,3.01-1.23,5.58
			h19.7c0.01,0.66,0.02,1.31,0.03,1.97c-4.46,0.14-8.93,0.59-13.37,0.35c-6.78-0.36-13.21,1.24-18.88,4.38
			c-7.5,4.15-9.1,4.56-16.18-0.51c-2.94-2.11-5.92-4.16-8.93-6.17c-5.09-3.41-8.19-3.19-12.71,0.92c-2.22,2.02-4.33,4.16-6.49,6.25
			c-0.6-0.55-0.36-0.33-0.96-0.88c3.23-4,6.47-8,9.54-11.81c-3.32-0.66-6.09-1.21-8.86-1.76c-0.11-0.56-0.11-0.59-0.22-1.15
			c1-0.64,1.99-1.27,3.4-2.16c-1.26-1.68-2.49-3.32-3.72-4.96c0.26-0.3,0.21-0.25,0.48-0.55c1.51,0.84,2.95,1.92,4.57,2.41
			c2,0.61,4.17,0.68,6.27,0.99c-0.36-1.85-0.72-3.71-1.15-5.9c2.53-0.67,5.23,4.25,9.19,0.5c-3.9-2.38-7.52-4.59-11.13-6.81
			c3.1-1.77,9.64,0.82,11.88,4.92c1.45-2.36,6.12,0.69,6.14-4.03l-0.11,0.11c1.44,0.8,4.08,1.62,4.07,2.4
			c-0.03,2.1-1.1,4.18-1.8,6.27c-0.58,0.03-0.6,0.03-1.18,0.06c-0.27-0.64-0.44-1.36-0.84-1.92c-0.56-0.77-1.29-1.42-1.94-2.12
			c-0.4,0.91-1.23,1.88-1.12,2.72c0.4,3.14-1.97,3.31-3.9,4.22c-1.17,0.55-2.55,1.52-2.91,2.61c-0.24,0.71,0.96,2.28,1.89,2.92
			c4.39,3.03,8.85,5.98,13.45,8.67c0.79,0.46,2.67-0.07,3.55-0.76c2.31-1.84,4.44-3.94,6.43-6.12c0.67-0.73,0.75-2.02,1.09-3.05
			c-1.04-0.12-2.18-0.57-3.09-0.29c-2.93,0.9-5.73,2.19-8.66,3.06c-0.72,0.21-1.74-0.61-2.62-0.95c0.56-1.06,0.85-2.62,1.73-3.07
			c1.32-0.68,3.05-0.56,4.6-0.79c0.03-0.62,0.02-0.49,0.05-1.11c-2.02-0.47-4.04-0.94-6.06-1.42c0.04-0.49,0.09-0.98,0.13-1.47
			c2.02,0.15,4.56-0.41,5.96,0.6c3.5,2.53,6.84,1.34,11.52,1.1c-7.31-4.85-0.92-10.78-3.8-16.41c3.68,1.86,5.22,3.86,4.82,7.09
			c-0.05,0.4-0.11,0.85,0.02,1.22c0.68,2.04-1.72,5.71,2.07,5.94c3.65,0.22,4.38-3.47,4.97-6.29c0.47-2.26,0.29-4.66,0.43-7.9
			c2.87,3.97,2.6,9.24-0.07,13.59c3.89,2.47,6.76-1.06,9.02-2.46c5.07-3.13,9.47-7.45,13.81-11.62c1.89-1.82,2.12-4.54-0.37-6.41
			c-7.01-5.28-11.11-12.73-15.67-19.94c-3.42-5.42-8.48-9.19-14.92-10.85c-2.54-0.65-5.1-2.6-7.46-2.32
			c-4.35,0.51-8.71,1.85-12.78,3.52c-9.02,3.69-17.79,8.1-27.85,8.09c-2.6,0-3.52,0.93-3.69,3.55c-0.25,3.89-1.13,7.74-1.55,11.63
			c-0.39,3.68-0.36,7.42-0.82,11.09c-0.4,3.15-0.93,6.35-1.93,9.36c-1.38,4.17,0.68,6.39,5.27,8.77l-7.25,5.68
			c-0.32-0.23-0.29-0.21-0.61-0.44c0.71-2.02,1.41-4.04,2.41-6.91c-1.44,0.6-1.98,0.68-2.32,0.98c-5.32,4.72-6.48,4.75-12.16,0.42
			c-0.71-0.54-1.57-1.07-2.43-1.22c-4.03-0.69-11.1,4.2-12.46,8.88c7.89,1.16,15.7,2.31,24.16,3.56c-1.1,1.13-2.39,3.64-3.92,3.79
			c-3.22,0.31-6.56-0.57-9.84-1.06c-1.17-0.18-2.3-0.61-3.44-0.97c-3.36-1.06-6.7-2.14-11.7-3.74c-2.16,1.8-6.56,4.19-9.05,7.86
			c-2.64,3.89-3.59,8.97-4.97,13.63c-0.15,0.51,1.72,2.29,2.74,2.37c7.45,0.59,15.02,0.26,22.36,1.43
			c17.78,2.85,35.66,2.37,53.51,2.13c8.35-0.11,16.69-2.2,25.01-2.06c16.28,0.26,32.54,1.74,48.82,2.12
			c6.83,0.16,13.7-1.2,20.55-1.85c1.89-0.18,3.8-0.53,5.68-0.41c7.99,0.49,15.41-1.8,22.82-4.31c2.89-0.98,5.93-1.61,8.67-2.88
			c1-0.47,2.06-2.47,1.86-3.54c-0.54-2.82-1.75-5.51-2.81-8.6c-10.84,7.33-22.18,11.27-34.92,9.2c-0.07-0.41-0.15-0.82-0.22-1.24
			c2.35-0.19,4.73-0.74,7.04-0.52c9.15,0.88,15.7-4.07,22.22-9.32c2.35-1.89,5.06-3.33,7.37-5.26c0.84-0.7,1.47-2.24,1.39-3.35
			c-0.72-10.41-1.32-20.84-2.59-31.19c-0.61-4.93-2.59-9.69-3.92-14.46c2.07-0.2,5.95,2.74,6.58,5.6
			c3.06,13.87,4.45,27.95,4.45,42.11c0,6.75-1.34,13.49-1.6,20.25c-0.08,2.03,0.87,4.68,2.3,6.08c2.75,2.7,2.56,5.72,1.67,8.64
			c-0.86,2.85-3.26,4.46-6.45,4.79c-6.19,0.65-12.36,1.59-18.56,2.15c-2.31,0.21-2.91,1.12-3.09,3.26
			c-0.35,4.31-1.14,8.58-1.52,12.88c-0.13,1.39,0.28,2.89,0.7,4.26c1.21,4.02,1.35,8-0.32,11.9c-1.14,2.67-3.22,3.68-6.2,3.48
			c-3.64-0.24-7.36,0.35-10.94-0.17c-5.63-0.81-11.16-2.25-16.86-4.25c3.35-0.34,6.7-0.68,11.03-1.12
			c-1.71-1.42-2.59-2.14-3.85-3.19c4.11-0.52,3.42-2.64,2.91-5.57c-0.78-4.49-0.7-9.18-0.59-13.77c0.09-3.98-1.26-5.43-5.44-5.37
			c-15.11,0.2-30.4,1.54-45.28-0.31c-27.85-3.46-55.68-0.95-83.49-2.01c-9.91-0.38-19.8-1.48-29.7-1.5
			c-8.72-0.02-17.6,0.2-26.14,1.77c-14.39,2.64-29,3.07-43.38,5.21c-19.16,2.85-38.23,1.44-57.35,1.04
			c-18.35-0.39-36.7-1.1-55.05-1.04c-13.72,0.05-27.44,1.08-41.15,1.73c-2.44,0.12-4.85,0.7-7.28,0.77c-2.95,0.08-6,0.25-8.85-0.34
			c-5.23-1.09-7.36,0.06-7.31,5.43c0.1,9.59,0.59,19.17,0.9,28.76c0.02,0.66-0.01,1.41-0.3,1.97c-1.54,3-7.37,4.4-10.56,2.57
			c1.96-0.91,4.8-1.34,5.59-2.83c0.91-1.74-0.06-4.42-0.07-6.69c-0.04-10.58-0.03-10.53-10.62-11.17c-2.69-0.16-3.94,0.61-4.17,3.52
			c-0.28,3.48-1.31,6.89-1.71,10.37c-0.28,2.39-0.05,4.84-0.05,7.47H93.73l-0.03-1.6c2.57,0,5.16,0.14,7.71-0.05
			c1.74-0.13,4.18-0.2,4.96-1.27c0.7-0.96-0.43-3.26-0.81-5.25c4.33-0.23,3.72-3.84,3.69-7.22c-0.05-7.01-0.15-14.03,0.04-21.04
			c0.1-3.74,0-6.93-5.34-6.68l0.42-1.51c6.08,0,12.17,0.19,18.23-0.04c10.71-0.42,20.84-3.03,30.19-8.47
			c7.14-4.15,14.21-8.48,21.65-12.01c3.96-1.88,8.64-2.25,13.01-3.26c3.53-0.81,7.07-2.12,10.63-2.22
			c10.74-0.29,21.49-0.12,32.24-0.07c1.45,0.01,2.89,0.38,4.33,0.58l0.03,1.12c-2.41,0.19-4.83,0.54-7.24,0.54
			c-10.46,0.02-20.95-0.46-31.38,0.06c-4.75,0.23-9.52,2.05-14.09,3.68c-4.1,1.46-8.06,3.44-11.86,5.59
			c-4.42,2.49-8.49,5.57-12.89,8.1c-3.52,2.02-7.31,3.58-11.37,5.54c0.88,0.36,1.64,0.93,2.39,0.93c11.98-0.01,24.2,1.4,35.88-0.49
			c19.99-3.23,40.02-2.65,59.82-1.45c17.37,1.05,34.69,1.73,52.07,1.87c1.49,0.01,2.99-0.07,4.48-0.19c0.51-0.04,1.01-0.31,1.91-0.6
			c-0.79-1.15-1.44-2.11-2.33-3.41c1.14-0.22,1.91-0.34,2.66-0.52c6.06-1.42,12.23-2.5,18.15-4.38c5.42-1.72,10.57-4.29,15.85-6.48
			c0.5-0.21,1.09-0.54,1.55-0.44c3.79,0.85,7.57,1.78,11.46,3.48c-9.26-1.33-16.92,2.28-25.22,7.29c1.81,0.37,2.88,0.84,3.89,0.74
			c8.9-0.83,17.8-1.74,26.68-2.72c0.86-0.09,1.63-1.04,2.49-1.14c1.41-0.18,3.15-0.49,4.25,0.13c3.54,2.02,5.84,1.29,7.31-2.52
			c2.84-7.35,6.44-14.47,8.53-22.01c1.53-5.54,5.27-7.66,9.41-10.61c6.83-4.88,11.99-11.56,15.28-19.5
			c3.61-8.71,5.58-17.79,7.6-26.97c1.92-8.74,6.1-16.97,8.41-25.66c2.1-7.87,6.52-13.73,12.65-18.63c3.25-2.6,6.44-5.36,9.99-7.5
			c1.68-1.01,4.13-0.79,6.24-1.06c1.64-0.21,3.29-0.32,4.94-0.48c0.04-0.9,0.03-0.63,0.06-1.53c-4.35-0.77-8.71-2.23-13.05-2.16
			c-8.24,0.13-16.5,2.01-24.67,1.57c-10.75-0.58-23.46,10.03-26.56,18.29c-3.19,8.52-6.22,17.1-9.75,25.48
			c-4.81,11.39-12.14,21.26-20.71,30c-4.46,4.55-10.28,7.79-15.6,11.47c-0.79,0.54-2.16,0.25-4,0.41c5.8-5.18,10.9-9.65,15.91-14.23
			c8.87-8.1,16.27-17.2,20.34-28.75c2.91-8.26,5.93-16.51,9.55-24.48c2.95-6.49,5.51-13.63,13.32-17.12
			c-3.49-1.02-6.93-2.71-10.48-2.95c-15.92-1.11-31.87-1.74-47.8-2.68c-7.19-0.42-13.8,1.6-20.31,4.21
			c-8.16,3.27-16.07,7.46-24.51,9.64c-7.9,2.04-16.33,2.42-24.55,2.69c-7.94,0.26-16.06,1.29-23.8-1.95
			c-1.18-0.49-2.7-0.32-4.05-0.26c-7.66,0.35-14.71-2.19-21.93-4.21c-5.39-1.52-11.36-1.28-16.51-3.28
			c-8.15-3.17-16.37-1.93-24.54-1.92c-8.12,0.01-15.91,2.34-23.26,5.9c-0.73,0.35-1.44,0.88-2.2,0.98
			c-6.43,0.88-12.93,1.4-19.3,2.59c-6.4,1.19-12.31,4.06-17.27,8.2c-4.75,3.96-9.07,8.49-13.22,13.08
			c-4.33,4.79-7.2,10.44-8.54,16.85c-1.5,7.19-3.01,14.39-4.91,21.48c-1.93,7.19-4.9,14.13-6.4,21.39
			c-2.61,12.57-8.95,23.34-15.17,34.22c-2.67,4.68-5.83,9.09-9.01,14.01c4.6-0.31,8.2-0.56,11.8-0.8c0.15,1.01,0.1,0.63,0.25,1.64
			c-4.84,1.15-9.66,2.35-14.52,3.42c-2.6,0.57-2.35-1.36-2.5-3.02 M53.46,301 M546.16,306.08c0.05,0.52,0.1,1.03,0.14,1.55
			c13.22-1.04,26.43-2.03,39.64-3.15c3.75-0.32,7.64-3.82,7.77-7.33c0.05-1.38-1.69-4.1-2.4-4.03c-3.68,0.36-7.31,1.34-10.91,2.28
			c-4.76,1.24-9.39,3.29-14.21,3.85c-11.29,1.33-22.66,2.57-34.01,2.71c-9.16,0.11-18.33-1.63-27.52-2.17
			c-6.92-0.41-13.88-0.44-20.81-0.23c-16.01,0.5-32.02,1.26-48.02,1.89c-1.62,0.06-3.25-0.02-4.87-0.17
			c-5.27-0.46-10.54-0.94-15.81-1.49c-3.9-0.41-7.78-1.17-11.69-1.37c-8.41-0.45-16.84-0.91-25.24-0.7
			c-1.62,0.04-3.17,3.12-4.75,4.79c1.09,0.68,2.18,1.93,3.28,1.95c19.91,0.3,39.81,0.62,59.69,1.82c7.03,0.43,14.1,0.2,21.15,0.33
			c16.46,0.3,32.92,0.57,49.38,1.01c3.76,0.1,7.54,1.43,11.25,1.19C527.57,308.21,536.86,307.03,546.16,306.08z M404.86,255.27
			c0.37,0.22,0.74,0.45,1.11,0.67c4.52-3.36,7.45,0.46,10.63,2.27c2.52,1.43,4.61,1.87,5.36-1.25c1.67-6.86,3.64-13.78,4.11-20.76
			c0.55-8.24,0.18-16.52,3.05-24.46c0.18-0.49,0.28-1.05,0.26-1.57c-0.29-5.79-0.59-11.57-0.92-17.35c-0.08-1.35-0.26-2.7-0.39-4.05
			c-0.49-0.11-0.98-0.21-1.48-0.32c-2.49,5.39-5.17,10.69-7.4,16.19c-1.49,3.67-2.42,7.59-3.44,11.43
			c-1.33,5.03-2.45,10.12-3.77,15.16c-1.21,4.62-2.49,9.23-3.84,13.81C407.13,248.47,405.96,251.86,404.86,255.27z M552.76,325.99
			c-0.03-0.56-0.07-1.12-0.1-1.68c1.19-0.23,2.37-0.57,3.57-0.68c4.42-0.39,7.34-4.01,6.77-9.25c-0.46-4.33-4.19-2.09-6.51-2.67
			c-0.38-0.1-0.81-0.01-1.22-0.01c-5.63,0.02-5.6,0.02-5.67,5.63c-0.04,3.04-0.12,6.09-0.38,9.12c-0.26,3.02-1.35,6.09-0.98,9
			c0.31,2.46,1.58,5.73,3.49,6.88c6.2,3.73,12.81-0.54,12.76-7.76c-0.01-1.49-0.11-2.98-0.08-4.47c0.06-2.92-1.42-4.17-4.26-4.12
			C557.69,326.03,555.23,325.99,552.76,325.99z M128.28,322.18c0.07,0,0.13,0,0.2,0c0-1.08-0.14-2.19,0.03-3.24
			c0.59-3.67-0.73-5.01-4.6-4.96c-9.87,0.15-9.88-0.02-9.9,9.78c0,0.41,0,0.81,0,1.22c-0.01,9.6,0.12,9.89,9.42,7.89
			c1.89-0.41,3.7-3.05,4.7-5.08C128.88,326.26,128.28,324.07,128.28,322.18z M492.29,264.7c-6.94,4.31-13.6,8.43-20.23,12.54
			c3.01,4.01,4.51,4.06,8.73,0.31c3.97-3.53,8.1-6.89,12.59-10.69C493.29,266.69,492.78,265.68,492.29,264.7z M520.26,230.08
			c-0.41-0.53-0.81-1.06-1.22-1.58c-1.41,1.11-3.12,2.01-4.13,3.4c-0.57,0.79,0,2.4,0.06,3.63c0.45,0,0.91,0.01,1.36,0.01
			C517.65,233.72,518.95,231.9,520.26,230.08z"/>
		<path d="M462.05,173.96c3.43-0.63,6.9-1.92,10.29-1.75c4.89,0.26,9.83,1.22,14.57,2.53c6.41,1.76,12.73,3.9,18.93,6.3
			c4.81,1.87,9.52,4.12,13.98,6.71c3.81,2.21,7.2,5.14,10.77,7.76c2.05,1.5,3.15,3.18,3.18,6.06c0.02,2.63,1.86,5.2,2.34,7.89
			c0.93,5.27,1.81,10.6,2.09,15.93c0.35,6.54,0.08,13.12,0.08,19.68c-0.49,0.03-0.98,0.06-1.47,0.1c-0.2-0.79-0.47-1.58-0.58-2.38
			c-0.75-5.31-1.48-10.62-2.17-15.93c-0.12-0.93-0.26-1.96,0-2.83c2.27-7.75-1.26-14.45-4.43-20.88
			c-3.88-7.89-11.57-11.87-19.33-15.06c-8.36-3.45-16.89-6.6-25.57-9.13c-5.94-1.73-11.82-3.77-18.59-1.28
			c-5.94,2.19-12.67,2.27-19.07,3.15c-1.2,0.16-2.5-0.32-3.8-1.37c0.65-0.29,1.27-0.72,1.95-0.84c5-0.89,10.04-1.64,15.01-2.64
			c0.76-0.15,1.3-1.4,1.95-2.14C462.18,173.84,462.05,173.96,462.05,173.96z"/>
		<path d="M555.97,200.13c4.6,0.97,7.73,3.17,10.39,6.17c0.26,0.3,0.34,0.75,0.59,1.06c2.45,3.08,3.05,8.14,9.01,7.22
			c-0.61,0.98-0.7,1.32-0.89,1.4c-2.35,1.01-6.67-0.51-5.8,4.59c0.49,2.85,0.19,6.1,1.48,8.51c3.42,6.36,7.55,12.34,11.32,18.53
			c1.31,2.15,2.82,4.33,3.43,6.7c0.75,2.96,0.6,5.79-1.82,8.61c-4.96,5.79-10.98,10.03-17.91,12.64c-3.13,1.18-7.09,0.2-10.67,0.2
			c-0.07-0.33-0.14-0.66-0.2-0.99c0.71-0.34,1.4-0.9,2.14-0.99c9.74-1.06,17.07-5.9,22.43-13.95c2.43-3.65,1.71-7.31-1.63-12.14
			c-4.47-6.48-8.79-13.08-12.7-19.91c-1.09-1.9-0.51-4.75-0.66-7.17c-0.06-0.95-0.12-1.92,0.04-2.85
			c1.25-7.26-1.18-12.67-7.88-16.04C556.42,201.61,556.38,201.13,555.97,200.13z"/>
		<path d="M440.94,200.63c5.33-2.63,10.56-5.49,16.03-7.78c3.1-1.3,6.64-1.52,9.89-2.53c3.02-0.94,5.82-2.8,8.87-3.32
			c3.31-0.57,6.92-0.63,10.18,0.08c7.48,1.63,14.44,4.58,20.01,10.14c0.41,0.41,1.3,0.29,1.94,0.51c0.47,0.17,0.9,0.49,1.34,0.74
			c-0.01,0.39-0.02,0.78-0.02,1.17c-1.37,0-2.89,0.39-4.07-0.07c-4.06-1.6-8.11-3.31-11.98-5.32c-9.02-4.68-17.99-5.54-27.34-0.83
			c-6.15,3.1-12.46,5.88-18.84,8.47c-1.67,0.68-3.84,0.1-5.79,0.1C441.09,201.53,441.02,201.08,440.94,200.63z"/>
		<path d="M433.63,282.75c-3.96,9.6-12.93,12.67-21.16,8.9c-7.21-3.31-14.86-5.67-22.26-8.6c-1.81-0.72-3.38-2.04-5.06-3.09
			c0.03-0.41,0.06-0.82,0.1-1.23c2.71,0,5.68-0.71,8.1,0.13c7.39,2.57,14.39,6.47,21.91,8.41c5.22,1.35,11.59,2.94,15.96-3
			C431.56,283.81,432.24,283.61,433.63,282.75z"/>
		<path d="M172.76,177.38c-7.85,7.41-13.53,16.3-18.86,25.6c-5.08,8.87-11.28,17.12-17.12,25.54c-2.23,3.21-4.85,6.16-7.29,9.22
			c-0.45-0.34-0.91-0.68-1.36-1.02c1.73-2.38,3.51-4.71,5.17-7.14c4.78-7.01,9.61-13.98,14.22-21.1
			c5.35-8.25,10.27-16.8,15.86-24.88c2.08-3,5.55-5.03,8.38-7.5C172.09,176.53,172.42,176.95,172.76,177.38z"/>
		<path d="M483.16,217.71c-0.58,0.9-1.16,1.8-2.39,3.7c2.07-0.9,0.62-4.32,2.08-4.95c0,3.16,2.43,9.08,2.43,12.51
			c-1.35-1.19-2.2-1.93-3.36-2.94c-0.62,1.67-1.11,2.97-1.64,4.38c-1.55-2.06-2.46-11.82-1.04-13.08c0.82-0.72,2.38-0.61,3.6-0.87
			C482.96,216.87,483.06,217.29,483.16,217.71z"/>
		<path d="M550.71,274.62c-2.5,3.73-20.48,5.07-28.39,2.45C531.77,276.26,541.1,275.45,550.71,274.62z"/>
		<path d="M329.37,190.87c-2.38-4.03,0.44-6.92,2.26-9.47c6.87-9.65,7.01-9.55,9.08-9.18C337.07,178.2,333.28,184.43,329.37,190.87z
			"/>
		<path d="M491.23,234.84c0-6.25,0-12.07,0-19.05C494.91,222.82,494.84,231.6,491.23,234.84z"/>
		<path d="M443.05,241.62c5.78-4.52-0.06-9.67,0.45-15.09c3.8,4.08,4.67,8.23,4.16,12.87C447.29,242.74,447.04,242.97,443.05,241.62
			z"/>
		<path d="M462.2,249.62c-2.23-0.98-4.46-1.96-6.08-2.68c0.78-3.44,1.5-6.62,2.23-9.88c1.25,4.23,2.49,8.44,3.74,12.66
			C462.09,249.73,462.2,249.62,462.2,249.62z"/>
		<path d="M583.74,332.52c-3.93,0-7.86,0-11.79,0c0-0.38,0-0.76-0.01-1.15c3.93,0,7.86,0,11.79,0
			C583.73,331.75,583.74,332.14,583.74,332.52z"/>
		<path d="M518.55,344.27c-4.63,0-9.26,0-13.89,0c0-0.3,0-0.59,0-0.89c4.63,0,9.26,0,13.89,0
			C518.55,343.68,518.55,343.97,518.55,344.27z"/>
		<path d="M97.7,311.08c-3.45,0-6.89,0-10.34,0c0-0.39,0-0.77,0-1.16c3.45,0,6.89,0,10.34,0C97.7,310.31,97.7,310.69,97.7,311.08z"
			/>
		<path d="M57.45,359.81c2.76,0,5.52,0,8.28,0c0,0.36,0,0.72,0.01,1.08c-2.76,0-5.52,0-8.27,0
			C57.46,360.53,57.45,360.17,57.45,359.81z"/>
		<path d="M478,242.07c-3.44,0-6.89,0-10.33,0c-0.02-0.29-0.05-0.58-0.07-0.87c3.45,0,6.9,0,10.35,0
			C477.96,241.49,477.98,241.78,478,242.07z"/>
		<path d="M239.22,288.5c2.46,0,4.92,0,7.39,0c0,0.38,0,0.75,0,1.13c-2.46,0-4.92,0-7.39,0
			C239.22,289.25,239.22,288.88,239.22,288.5z"/>
		<path d="M177.5,345.56c2.47,0,4.95,0,7.42,0c0.02,0.36,0.03,0.72,0.05,1.08c-2.47,0-4.95,0-7.42,0
			C177.54,346.28,177.52,345.92,177.5,345.56z"/>
		<path d="M84.84,358.67c-2.45,0-4.89,0-7.34,0c-0.02-0.39-0.03-0.78-0.05-1.17c2.44,0,4.89,0,7.33,0
			C84.8,357.89,84.82,358.28,84.84,358.67z"/>
	</g>
	<path class="st166" d="M561.31,204.99c-11.02-3.28-22.05-6.56-33.07-9.84"/>
	<path class="st166" d="M528.09,256.58c-9.05,3.1-17.4,8.2-24.29,14.83c2.8,3.06,7.29,4.47,11.34,3.55"/>
</g>
</svg>
